<svg xmlns="http://www.w3.org/2000/svg" viewBox="0 0 100 100" role="img" aria-label="PureSeva symbol — a saffron droplet resting in a green lotus">
  <title>PureSeva</title>
  <defs>
    <linearGradient id="psLotus" x1="0" y1="0" x2="0" y2="1"><stop offset="0" stop-color="#A7DA55"/><stop offset="1" stop-color="#268A3B"/></linearGradient>
    <linearGradient id="psDrop" x1="0" y1="0" x2="0" y2="1"><stop offset="0" stop-color="#FBB03B"/><stop offset=".55" stop-color="#F47A20"/><stop offset="1" stop-color="#E5421E"/></linearGradient>
    <linearGradient id="psShine" x1="0" y1="0" x2="0" y2="1"><stop offset="0" stop-color="#FFF3C4" stop-opacity=".95"/><stop offset="1" stop-color="#fff" stop-opacity=".1"/></linearGradient>
  </defs>
  <g transform="translate(0 12)">
    <g fill="url(#psLotus)">
      <g transform="rotate(-80 50 62)"><path d="M50 62 C43 51 43 33 50 20 C57 33 57 51 50 62 Z"/></g>
      <g transform="rotate(-44 50 62)"><path d="M50 62 C43 51 43 33 50 20 C57 33 57 51 50 62 Z"/></g>
      <path d="M50 62 C41 47 41 24 50 8 C59 24 59 47 50 62 Z"/>
      <g transform="rotate(44 50 62)"><path d="M50 62 C43 51 43 33 50 20 C57 33 57 51 50 62 Z"/></g>
      <g transform="rotate(80 50 62)"><path d="M50 62 C43 51 43 33 50 20 C57 33 57 51 50 62 Z"/></g>
    </g>
    <path d="M50 16 C42 31 38 42 38 50 C38 58 43 64 50 64 C57 64 62 58 62 50 C62 42 58 31 50 16 Z" fill="url(#psDrop)"/>
    <path d="M50 28 C46 35 44 42 44 48 C44 54 47 58 51 57 C48 52 48 45 50 39 C51 35 51 31 50 28 Z" fill="url(#psShine)"/>
  </g>
</svg>
